<svg width="500" height="400" viewBox="0 0 500 400" xmlns="http://www.w3.org/2000/svg">
  <!-- Background gradient -->
  <defs>
    <linearGradient id="bgGradient" x1="0%" y1="0%" x2="100%" y2="100%">
      <stop offset="0%" stop-color="#4361ee" stop-opacity="0.1"/>
      <stop offset="100%" stop-color="#3f37c9" stop-opacity="0.3"/>
    </linearGradient>
    <linearGradient id="circleGradient" x1="0%" y1="0%" x2="100%" y2="100%">
      <stop offset="0%" stop-color="#4361ee"/>
      <stop offset="100%" stop-color="#3f37c9"/>
    </linearGradient>
  </defs>
  
  <!-- Background -->
  <rect width="500" height="400" fill="url(#bgGradient)" rx="20" ry="20"/>
  
  <!-- Decorative elements -->
  <circle cx="100" cy="80" r="40" fill="url(#circleGradient)" opacity="0.7">
    <animate attributeName="r" values="40;45;40" dur="4s" repeatCount="indefinite"/>
  </circle>
  
  <circle cx="400" cy="300" r="50" fill="url(#circleGradient)" opacity="0.7">
    <animate attributeName="r" values="50;55;50" dur="5s" repeatCount="indefinite"/>
  </circle>
  
  <!-- Book icon -->
  <g transform="translate(250, 200)" fill="#4361ee">
    <rect x="-40" y="-30" width="80" height="60" rx="5" ry="5" fill="white" stroke="#4361ee" stroke-width="3"/>
    <rect x="-35" y="-25" width="70" height="10" rx="2" ry="2" fill="#4895ef"/>
    <rect x="-35" y="-10" width="50" height="5" rx="2" ry="2" fill="#4361ee"/>
    <rect x="-35" y="0" width="60" height="5" rx="2" ry="2" fill="#4361ee"/>
    <rect x="-35" y="10" width="40" height="5" rx="2" ry="2" fill="#4361ee"/>
    <rect x="-35" y="20" width="55" height="5" rx="2" ry="2" fill="#4361ee"/>
  </g>
  
  <!-- Floating particles -->
  <circle cx="150" cy="150" r="5" fill="#4895ef">
    <animate attributeName="cy" values="150;140;150" dur="3s" repeatCount="indefinite"/>
  </circle>
  
  <circle cx="350" cy="100" r="4" fill="#4895ef">
    <animate attributeName="cy" values="100;90;100" dur="2.5s" repeatCount="indefinite"/>
  </circle>
  
  <circle cx="200" cy="300" r="6" fill="#4895ef">
    <animate attributeName="cy" values="300;290;300" dur="4s" repeatCount="indefinite"/>
  </circle>
  
  <circle cx="300" cy="250" r="3" fill="#4895ef">
    <animate attributeName="cy" values="250;240;250" dur="3.5s" repeatCount="indefinite"/>
  </circle>
  
  <!-- Accessibility symbol -->
  <g transform="translate(400, 80)" fill="#4361ee">
    <circle cx="0" cy="0" r="20" fill="white" stroke="#4361ee" stroke-width="2"/>
    <path d="M0,-10 L0,10 M-10,0 L10,0" stroke="#4361ee" stroke-width="3" stroke-linecap="round"/>
    <circle cx="0" cy="-15" r="5" fill="#4361ee"/>
  </g>
</svg>